<?xml version="1.0" encoding="UTF-8" standalone="no"?>
<!-- Created with Inkscape (http://www.inkscape.org/) -->

<svg
   xmlns:dc="http://purl.org/dc/elements/1.1/"
   xmlns:cc="http://creativecommons.org/ns#"
   xmlns:rdf="http://www.w3.org/1999/02/22-rdf-syntax-ns#"
   xmlns:svg="http://www.w3.org/2000/svg"
   xmlns="http://www.w3.org/2000/svg"
   xmlns:sodipodi="http://sodipodi.sourceforge.net/DTD/sodipodi-0.dtd"
   xmlns:inkscape="http://www.inkscape.org/namespaces/inkscape"
   width="694.28168mm"
   height="177.09537mm"
   viewBox="0 0 694.28168 177.09536"
   version="1.1"
   id="svg2688"
   inkscape:version="0.92.2 (5c3e80d, 2017-08-06)"
   sodipodi:docname="EdgeLitFlower.svg">
  <defs
     id="defs2682">
    <inkscape:path-effect
       is_visible="true"
       id="path-effect23796"
       effect="spiro" />
    <inkscape:path-effect
       effect="spiro"
       id="path-effect23790"
       is_visible="true" />
    <inkscape:path-effect
       effect="spiro"
       id="path-effect23785"
       is_visible="true" />
    <inkscape:path-effect
       effect="spiro"
       id="path-effect23782"
       is_visible="true" />
    <inkscape:path-effect
       effect="spiro"
       id="path-effect23779"
       is_visible="true" />
    <inkscape:path-effect
       effect="spiro"
       id="path-effect23776"
       is_visible="true" />
    <inkscape:path-effect
       is_visible="true"
       id="path-effect2601"
       effect="spiro" />
    <inkscape:path-effect
       effect="spiro"
       id="path-effect2595"
       is_visible="true" />
    <inkscape:path-effect
       effect="spiro"
       id="path-effect2590"
       is_visible="true" />
    <inkscape:path-effect
       effect="spiro"
       id="path-effect2587"
       is_visible="true" />
    <inkscape:path-effect
       effect="spiro"
       id="path-effect2584"
       is_visible="true" />
    <inkscape:path-effect
       effect="spiro"
       id="path-effect2581"
       is_visible="true" />
    <inkscape:path-effect
       effect="spiro"
       id="path-effect3416"
       is_visible="true" />
    <inkscape:path-effect
       is_visible="true"
       id="path-effect3410"
       effect="spiro" />
    <inkscape:path-effect
       is_visible="true"
       id="path-effect3405"
       effect="spiro" />
    <inkscape:path-effect
       is_visible="true"
       id="path-effect3402"
       effect="spiro" />
    <inkscape:path-effect
       is_visible="true"
       id="path-effect3399"
       effect="spiro" />
    <inkscape:path-effect
       is_visible="true"
       id="path-effect3396"
       effect="spiro" />
  </defs>
  <sodipodi:namedview
     id="base"
     pagecolor="#ffffff"
     bordercolor="#666666"
     borderopacity="1.0"
     inkscape:pageopacity="0.0"
     inkscape:pageshadow="2"
     inkscape:zoom="0.53754749"
     inkscape:cx="1127.0303"
     inkscape:cy="-89.224533"
     inkscape:document-units="mm"
     inkscape:current-layer="layer1"
     showgrid="false"
     inkscape:window-width="1920"
     inkscape:window-height="1147"
     inkscape:window-x="-8"
     inkscape:window-y="-8"
     inkscape:window-maximized="1"
     fit-margin-top="0"
     fit-margin-left="0"
     fit-margin-right="0"
     fit-margin-bottom="0"
     inkscape:measure-start="-184.584,-308.594"
     inkscape:measure-end="-148.301,-308.594"
     showguides="false"
     inkscape:guide-bbox="true"
     inkscape:snap-midpoints="true" />
  <metadata
     id="metadata2685">
    <rdf:RDF>
      <cc:Work
         rdf:about="">
        <dc:format>image/svg+xml</dc:format>
        <dc:type
           rdf:resource="http://purl.org/dc/dcmitype/StillImage" />
        <dc:title></dc:title>
      </cc:Work>
    </rdf:RDF>
  </metadata>
  <g
     inkscape:label="Layer 1"
     inkscape:groupmode="layer"
     id="layer1"
     transform="translate(246.77769,-45.162016)">
    <g
       transform="translate(-353.93518,-219.49323)"
       id="g3522"
       style="stroke:#00ffff;stroke-opacity:1">
      <path
         inkscape:connector-curvature="0"
         id="path3354"
         transform="scale(0.26458333)"
         d="m 1712.8125,1155.7578 -1.248,3.1641 c -3.6569,-0.7288 -6.8037,-0.8692 -10.6739,-0.8692 -10.3416,0 -20.0388,2.7426 -28.4297,7.5196 l -2.3632,-2.7266 -9.9981,8.6602 1.6563,1.9101 c -1.159,1.0746 -2.2765,2.1918 -3.3438,3.3574 l -1.8828,-2.1757 -3.9981,3.4648 2.2266,2.5703 c -7.9989,9.8918 -11.4609,21.3164 -11.4609,35.0215 0,1.0394 0.038,2.0697 0.092,3.0957 l -3.502,0.9043 3.3067,12.8066 2.414,-0.623 c 0.445,1.5225 0.9531,3.0187 1.5176,4.4863 l -2.752,0.709 1.3223,5.123 3.293,-0.8496 c 5.5866,12.0634 14.8401,20.3987 26.7832,26.1973 0.023,0.011 0.044,0.022 0.066,0.029 0.7838,0.316 1.5477,0.5947 2.3027,0.8574 l -0.5254,3.2989 13.0645,2.0761 0.3906,-2.4551 c 1.6495,0.248 3.2197,0.4969 4.6563,0.793 l -0.3828,2.4043 5.2265,0.832 0.2617,-1.6464 c 3.007,1.4299 5.5442,3.8785 7.9727,8.7578 3.8441,7.7493 7.0479,15.816 9.6191,24.08 l -2.1328,0.5254 3.1641,12.8438 2.4004,-0.5918 c 0.3458,1.5373 0.673,3.0785 0.9746,4.625 l -2.2461,0.5547 1.2656,5.1367 1.9082,-0.4688 c 2.0697,12.8068 2.6196,25.8528 1.5449,38.7793 l -1.9472,-0.3242 -2.17,13.0469 2.4981,0.416 c -0.2495,1.5554 -0.5162,3.1076 -0.8027,4.6563 l -2.4707,-0.4121 -0.8672,5.2187 2.3125,0.3848 c -2.6798,12.7129 -6.4863,25.2282 -10.6602,37.6972 l -2.3652,-0.8027 -4.2598,12.5234 2.3457,0.7969 c -0.5182,1.4864 -1.0361,2.9741 -1.5566,4.461 l -2.3106,-0.7852 -1.7031,5.0078 2.2676,0.7715 c -4.3482,12.437 -8.6342,24.9158 -12.1231,37.5879 l -2.8144,-0.6094 -2.7988,12.9277 2.4062,0.5215 c -0.3439,1.5369 -0.6717,3.0769 -0.9844,4.6211 l -2.4199,-0.5254 -1.1191,5.1719 2.5507,0.5508 c -0.362,2.0485 -0.7043,4.1029 -1.0019,6.166 -1.594,11.0506 -2.1621,22.2374 -1.7402,33.3887 l -3.0059,0.3476 1.5195,13.1407 2.4571,-0.2852 c 0.1697,1.566 0.3518,3.1301 0.5605,4.6914 l -2.4746,0.2871 0.6094,5.2559 2.6465,-0.3067 c 2.1196,13.0698 5.6003,25.9175 10.4043,38.2539 l -2.5215,1.1563 5.5117,12.0254 2.2539,-1.0332 c 0.6752,1.4233 1.3623,2.8406 2.0742,4.2461 l -2.3613,1.0801 2.2051,4.8105 2.8769,-1.3203 v 36.6778 h 9.252 v -41.4981 l -5.0254,-12.2364 -2.3242,0.9551 c -0.6117,-1.4516 -1.2073,-2.9101 -1.7813,-4.3769 l 2.3106,-0.9492 -2.0098,-4.8926 -2.1563,0.8847 c -4.3903,-12.2439 -7.4978,-24.952 -9.2558,-37.8437 l 2.1933,-0.168 -1.0058,-13.1894 -2.502,0.1914 c -0.102,-1.572 -0.1896,-3.1449 -0.2519,-4.7188 l 2.3945,-0.1816 -0.4023,-5.2754 -2.1211,0.1621 c -0.1017,-9.3537 0.4983,-18.7132 1.834,-27.9727 0.5214,-3.6151 1.16,-7.208 1.8789,-10.7851 l 2.1269,0.5449 3.2891,-12.8125 -2.4512,-0.6289 c 0.3935,-1.5241 0.8003,-3.0451 1.2188,-4.5644 l 2.4062,0.6171 1.3164,-5.125 -2.2734,-0.5839 c 3.6615,-12.5113 8.0255,-24.8933 12.3691,-37.2911 l 2.3731,0.8067 4.2597,-12.5235 -2.2929,-0.7793 c 0.5092,-1.4911 0.9979,-2.987 1.498,-4.4804 l 2.3164,0.7871 1.7031,-5.0098 -2.3437,-0.7969 c 4.0983,-12.5952 7.7203,-25.2995 10.1269,-38.2636 l 2.9141,0.3281 1.4805,-13.1445 -2.416,-0.2715 c 0.1787,-1.5622 0.3348,-3.1299 0.4707,-4.7012 l 2.4746,0.2793 0.5937,-5.2578 -2.6992,-0.3047 c 0.6997,-13.2416 -0.2634,-26.5535 -2.7793,-39.5684 l 2.6348,-0.6582 -3.2071,-12.832 -2.4609,0.6152 c -0.4209,-1.5189 -0.8526,-3.0346 -1.3164,-4.541 l 2.6309,-0.6582 -1.2813,-5.1328 -2.9863,0.7461 c -2.4253,-7.0691 -5.3256,-13.9749 -8.6836,-20.6504 -0.03,-0.055 -0.063,-0.1071 -0.1016,-0.1562 -2.7236,-3.6938 -3.5582,-6.2097 -3.3965,-7.8321 0.1618,-1.6224 1.2225,-2.722 3.1895,-3.8164 0.359,-0.1995 0.7685,-0.3889 1.1758,-0.5781 l 1.0117,2.4277 12.209,-5.0839 -1.002,-2.4063 c 1.059,-0.5573 2.1015,-1.1532 3.0879,-1.8516 l 0.01,-0.01 c 0.5378,-0.3874 1.053,-0.8019 1.5762,-1.207 l 0.6894,1.6582 4.8829,-2.0332 -1.3067,-3.1406 -0.2285,0.096 c 9.6218,-8.9753 16.0944,-21.1507 17.8496,-34.668 l 3.6817,-0.2793 -1.004,-13.1894 -2.4882,0.1894 c -0.1603,-1.5827 -0.3997,-3.1413 -0.6856,-4.6836 l 2.8164,-0.2148 -0.4004,-5.2754 -3.3925,0.2578 c -5.7281,-13.9505 -12.5117,-24.3919 -23.5098,-32.0234 l 1.4082,-3.5723 -12.3047,-4.8516 -0.918,2.3262 c -1.4699,-0.5548 -2.9698,-1.0453 -4.4941,-1.4805 l 1.0176,-2.5781 z m -11.9219,7.9277 c 28.7526,0 51.9647,23.2092 51.9688,51.961 -0.011,17.1659 -8.3924,32.6285 -21.584,42.1426 -4.1272,2.9184 -10.5594,4.1569 -15.9609,7.1621 -2.7024,1.5033 -5.6681,4.2479 -6.0606,8.1777 -0.049,0.4963 0.2189,0.9674 0.2363,1.4551 -3.6992,-4.1392 -7.8545,-6.965 -12.1875,-7.9063 -6.0398,-1.312 -11.8762,-1.4141 -19.1914,-4.3261 -17.2666,-8.4429 -29.1894,-26.136 -29.1894,-46.6973 0,-28.7551 23.2136,-51.9688 51.9687,-51.9688 z"
         style="opacity:1;vector-effect:none;fill:none;fill-opacity:1;fill-rule:nonzero;stroke:#00ffff;stroke-width:0.37792709;stroke-linecap:round;stroke-linejoin:round;stroke-miterlimit:4;stroke-dasharray:none;stroke-dashoffset:0;stroke-opacity:1"
         sodipodi:nodetypes="ccsccccccccsccccccccccccccccccccccccccccccccccccccccccccccccccccccccccccccccccccccccccccccccccccccccccccccccccccccccccccccccccccccccccccccccccccccccccccccccccccscccccccss" />
      <path
         sodipodi:nodetypes="cccccccccccccc"
         inkscape:connector-curvature="0"
         id="path3356"
         d="m 454.37556,338.71478 c 8e-5,1.4e-4 -9e-5,0 0,0 0.0749,0.11248 0.15754,0.22987 0.24753,0.35193 0.004,0.005 0.008,0.0108 0.0119,0.0164 0.002,0.002 0.003,0.005 0.005,0.007 0.004,0.006 0.007,0.0115 0.0104,0.0175 0.0648,0.12877 0.12409,0.26019 0.18758,0.38962 1.11247,1.58289 2.68508,2.96279 4.58222,4.02072 6.4663,3.59596 15.0613,2.67235 19.19728,-2.06293 3.50105,-4.01611 2.72935,-9.60679 -1.85725,-13.45499 -0.88949,0.1621 -1.79265,0.27226 -2.69855,0.32917 -3.51177,0.21126 -6.92207,-0.38578 -9.64334,-1.68826 l -2.3e-4,-5.9e-4 c -5e-5,1.3e-4 6e-5,0 0,0"
         style="opacity:1;vector-effect:none;fill:none;fill-opacity:1;fill-rule:nonzero;stroke:#00ffff;stroke-width:0.1;stroke-linecap:round;stroke-linejoin:round;stroke-miterlimit:4;stroke-dasharray:none;stroke-dashoffset:0;stroke-opacity:1" />
      <path
         sodipodi:nodetypes="cccccccc"
         inkscape:connector-curvature="0"
         id="path3358"
         d="m 464.41706,326.64354 c 2.72218,1.30148 6.13282,1.89742 9.64437,1.68516 8.33415,-0.51064 15.03196,-5.34619 14.95981,-10.80038 -0.0669,-5.07221 -5.99445,-8.95984 -13.71285,-8.99376 l 1e-5,-9e-5 c -0.50111,-0.002 -1.00421,0.0121 -1.5074,0.0429 -2.12766,0.13472 -4.00737,0.60802 -5.93864,1.30041 -1.58566,1.32687 -3.55228,2.33261 -5.34491,3.03784"
         style="opacity:1;vector-effect:none;fill:none;fill-opacity:1;fill-rule:nonzero;stroke:#00ffff;stroke-width:0.1;stroke-linecap:round;stroke-linejoin:round;stroke-miterlimit:4;stroke-dasharray:none;stroke-dashoffset:0;stroke-opacity:1" />
      <path
         inkscape:connector-curvature="0"
         id="path3360"
         d="m 462.52623,312.92883 c 3.69919,-1.45777 7.63664,-4.34698 9.84333,-7.89565 4.13424,-6.64807 2.4339,-13.68501 -3.14503,-15.71738 -0.91324,-0.33269 -1.91402,-0.51626 -2.97501,-0.54571 v -3.2e-4 c -5.27247,-0.14629 -11.24912,2.43704 -14.61203,7.84501 -1.45668,2.34542 -2.30658,5.90695 -2.44533,8.26047 0.14023,0.51496 0.24982,1.02736 0.32815,1.53429"
         style="opacity:1;vector-effect:none;fill:none;fill-opacity:1;fill-rule:nonzero;stroke:#00ffff;stroke-width:0.1;stroke-linecap:round;stroke-linejoin:round;stroke-miterlimit:4;stroke-dasharray:none;stroke-dashoffset:0;stroke-opacity:1"
         sodipodi:nodetypes="ccsccccc" />
      <path
         sodipodi:nodetypes="cccccc"
         inkscape:connector-curvature="0"
         id="path3362"
         d="m 437.56385,330.4068 8e-5,2.4e-4 c -2.98177,1.0858 -5.67705,2.97633 -7.63261,5.35369 -4.69622,5.71757 -3.97574,12.69346 1.60921,15.58094 5.58483,2.88767 13.91933,0.59344 18.6154,-5.12424 1.33256,-1.62891 2.27105,-3.42764 2.73936,-5.25031"
         style="opacity:1;vector-effect:none;fill:none;fill-opacity:1;fill-rule:nonzero;stroke:#00ffff;stroke-width:0.1;stroke-linecap:round;stroke-linejoin:round;stroke-miterlimit:4;stroke-dasharray:none;stroke-dashoffset:0;stroke-opacity:1" />
      <path
         inkscape:connector-curvature="0"
         id="path3364"
         d="m 436.70712,314.2447 c -1.61004,-0.45788 -3.36693,-0.70656 -5.18418,-0.73379 h 2e-5 c -1.34938,-0.0174 -2.7168,0.0874 -4.06487,0.3116 -8.23644,1.36972 -15.0379,6.27296 -13.88597,11.60446 1.15174,5.33171 9.82111,9.07271 18.05781,7.7029 0.47183,-0.0794 0.9402,-0.17317 1.40353,-0.28112 1.38999,-1.02128 2.92926,-1.84524 4.53925,-2.42983"
         style="opacity:1;vector-effect:none;fill:none;fill-opacity:1;fill-rule:nonzero;stroke:#00ffff;stroke-width:0.1;stroke-linecap:round;stroke-linejoin:round;stroke-miterlimit:4;stroke-dasharray:none;stroke-dashoffset:0;stroke-opacity:1"
         sodipodi:nodetypes="cccccccc" />
      <path
         inkscape:connector-curvature="0"
         id="path3366"
         d="m 449.53064,306.40954 c -0.31613,-1.98853 -1.10847,-4.03693 -2.30993,-5.97172 -3.36303,-5.40817 -9.33997,-10.63739 -14.61255,-10.49084 -1.06082,0.0296 -3.11977,0.74255 -4.03282,1.07538 -5.5786,2.03245 -5.69141,10.12735 -1.55753,16.77521 1.39085,2.22747 3.27288,4.22042 5.43635,5.75676 1.48694,0.0816 2.92128,0.31368 4.25453,0.68831"
         style="opacity:1;vector-effect:none;fill:none;fill-opacity:1;fill-rule:nonzero;stroke:#00ffff;stroke-width:0.1;stroke-linecap:round;stroke-linejoin:round;stroke-miterlimit:4;stroke-dasharray:none;stroke-dashoffset:0;stroke-opacity:1"
         sodipodi:nodetypes="ccccccc" />
      <path
         id="path3368"
         style="opacity:1;vector-effect:none;fill:none;fill-opacity:1;fill-rule:nonzero;stroke:#00ffff;stroke-width:0.1;stroke-linecap:round;stroke-linejoin:round;stroke-miterlimit:4;stroke-dasharray:none;stroke-dashoffset:0;stroke-opacity:1"
         inkscape:path-effect="#path-effect3416"
         inkscape:original-d="m 458.19537,368.22182 c 3.89141,1.47714 8.1864,2.27143 12.27247,1.99834 4.18663,-0.27981 9.86867,-3.41606 9.59317,-5.37947 0.0775,-0.23762 0.0219,-0.86876 0.0326,-1.30333 2.48454,-2.67342 -7.64204,-6.80788 -10.1495,-5.70778 -3.75037,1.85365 -7.71928,0.61412 -11.46989,2.46806"
         d="m 458.19537,368.22182 c 3.67666,2.10055 8.11934,2.82396 12.27247,1.99834 3.65591,-0.72677 7.06635,-2.63921 9.59317,-5.37947 l 0.0326,-1.30333 c -2.54891,-3.03964 -6.22809,-5.1087 -10.1495,-5.70778 -3.95244,-0.60382 -8.11562,0.292 -11.46989,2.46806"
         inkscape:connector-curvature="0"
         sodipodi:nodetypes="cscccc" />
      <path
         style="opacity:1;vector-effect:none;fill:none;fill-opacity:1;fill-rule:nonzero;stroke:#00ffff;stroke-width:0.10000001;stroke-linecap:round;stroke-linejoin:round;stroke-miterlimit:4;stroke-dasharray:none;stroke-dashoffset:0;stroke-opacity:1"
         d="m 453.44285,376.38086 c -3.77269,-2.11721 -8.34846,-3.83452 -12.52652,-3.40108 -3.83595,0.39795 -9.43705,2.89542 -12.67672,5.21911 l -0.12265,1.21856 c 2.87323,3.15638 6.6434,5.36386 10.71059,6.27121 3.90516,0.87121 8.0702,0.53878 11.88313,-0.93596"
         id="path3370"
         inkscape:connector-curvature="0"
         sodipodi:nodetypes="csccsc" />
      <path
         sodipodi:nodetypes="ccccc"
         style="opacity:1;vector-effect:none;fill:none;fill-opacity:1;fill-rule:nonzero;stroke:#00ffff;stroke-width:0.1;stroke-linecap:round;stroke-linejoin:round;stroke-miterlimit:4;stroke-dasharray:none;stroke-dashoffset:0;stroke-opacity:1"
         d="m 458.78176,351.94423 c 2.13066,1.88063 4.81462,3.13756 7.63209,3.5238 3.47004,0.47572 7.1047,-0.36489 10.01334,-2.31613 l 0.2589,-1.16994 c -1.60089,-2.46639 -3.60296,-4.67056 -5.89989,-6.50608"
         id="path3372"
         inkscape:connector-curvature="0" />
      <path
         sodipodi:nodetypes="ccccccccccc"
         style="opacity:1;vector-effect:none;fill:none;fill-opacity:1;fill-rule:nonzero;stroke:#00ffff;stroke-width:0.10000001;stroke-linecap:round;stroke-linejoin:round;stroke-miterlimit:4;stroke-dasharray:none;stroke-dashoffset:0;stroke-opacity:1"
         d="m 452.8643,340.89838 c 0.01,0.022 0.0196,0.0438 0.0294,0.0656 -0.01,-0.0217 -0.0188,-0.0438 -0.0284,-0.0656 0,5e-5 0,-5e-5 0,0 z m -13.07308,11.4189 c -0.48006,1.33414 -0.77968,2.73243 -0.87437,4.14756 l 0.53279,1.04801 c 2.88227,0.68363 5.57234,0.59161 8.70437,-0.75345 2.57728,-1.10681 6.08856,-2.40702 7.95663,-4.86172 -0.0116,-0.075 -0.0209,-0.15039 -0.0331,-0.22532"
         id="path3374"
         inkscape:connector-curvature="0" />
      <path
         sodipodi:nodetypes="cscccc"
         inkscape:connector-curvature="0"
         d="m 455.50706,367.66467 c -2.74182,1.99914 -6.04547,3.21891 -9.42856,3.4812 -3.71306,0.28787 -7.50777,-0.5842 -10.72262,-2.46421 l -0.30456,-1.17924 c 2.01402,-3.49162 5.22524,-6.27775 8.96603,-7.77914 3.98262,-1.59845 8.53806,-1.72232 12.60167,-0.34268"
         inkscape:original-d="m 455.50706,367.66467 c -2.96576,1.6247 -6.19301,2.86526 -9.42856,3.4812 -4.24808,0.80869 -10.58866,-0.60528 -10.72262,-2.46421 -0.12715,-0.19682 -0.20319,-0.78599 -0.30456,-1.17924 -3.04416,-1.80464 6.2272,-8.14445 8.96603,-7.77914 4.13988,0.73612 8.4615,-1.079 12.60167,-0.34268"
         inkscape:path-effect="#path-effect3410"
         style="opacity:1;vector-effect:none;fill:none;fill-opacity:1;fill-rule:nonzero;stroke:#00ffff;stroke-width:0.1;stroke-linecap:round;stroke-linejoin:round;stroke-miterlimit:4;stroke-dasharray:none;stroke-dashoffset:0;stroke-opacity:1"
         id="path3376" />
      <path
         sodipodi:nodetypes="csccsc"
         inkscape:connector-curvature="0"
         id="path3378"
         d="m 455.59992,376.79767 c 4.22395,-1.04751 7.42427,-1.37036 11.6469,0.40122 3.78353,1.58736 8.74797,5.86387 11.36244,9.23594 l -0.23145,1.28322 c -3.84363,2.34172 -8.3218,3.43755 -12.72193,3.11312 -4.52848,-0.33388 -9.06056,-2.35605 -12.64364,-5.39135"
         style="opacity:1;vector-effect:none;fill:none;fill-opacity:1;fill-rule:nonzero;stroke:#00ffff;stroke-width:0.10000001;stroke-linecap:round;stroke-linejoin:round;stroke-miterlimit:4;stroke-dasharray:none;stroke-dashoffset:0;stroke-opacity:1" />
      <path
         inkscape:connector-curvature="0"
         style="opacity:1;vector-effect:none;fill:none;fill-opacity:1;fill-rule:nonzero;stroke:#00ffff;stroke-width:0.1;stroke-linecap:round;stroke-linejoin:round;stroke-miterlimit:4;stroke-dasharray:none;stroke-dashoffset:0;stroke-opacity:1"
         d="m 448.13513,391.68904 -26.77847,5e-5 c -0.93409,0 -1.68569,1.16954 -1.68569,2.62258 v 3.9217 c 0,1.45307 0.7516,2.62261 1.68569,2.62261 h 4.65656 c 0.004,0.0586 0.009,0.11755 0.0185,0.17724 l 5.29167,33.20468 c 0.20055,1.25844 0.7521,2.29341 1.68619,2.29341 h 32.62955 c 0.93406,0 1.48513,-1.03497 1.68569,-2.29341 l 5.29166,-33.20468 c 0.0101,-0.0597 0.0143,-0.11866 0.0185,-0.17724 h 4.65656 c 0.93409,0 1.68619,-1.16954 1.68619,-2.62261 v -3.9217 c 0,-1.45304 -0.7521,-2.62258 -1.68619,-2.62258 h -26.34776"
         id="path3380"
         sodipodi:nodetypes="ccssscccsscccssssc" />
      <path
         style="opacity:1;vector-effect:none;fill:none;fill-opacity:1;fill-rule:nonzero;stroke:#00ffff;stroke-width:0.1;stroke-linecap:round;stroke-linejoin:round;stroke-miterlimit:4;stroke-dasharray:none;stroke-dashoffset:0;stroke-opacity:1"
         d="m 426.01321,400.85598 h 19.9695"
         id="path3382"
         inkscape:connector-curvature="0"
         inkscape:path-effect="#path-effect3405"
         inkscape:original-d="m 426.01321,400.85598 c 6.65677,-2.7e-4 13.31326,-2.7e-4 19.9695,0" />
      <path
         style="opacity:1;vector-effect:none;fill:none;fill-opacity:1;fill-rule:nonzero;stroke:#00ffff;stroke-width:0.1;stroke-linecap:round;stroke-linejoin:round;stroke-miterlimit:4;stroke-dasharray:none;stroke-dashoffset:0;stroke-opacity:1"
         d="M 472.63517,400.85598 H 448.72679"
         id="path3384"
         inkscape:connector-curvature="0"
         inkscape:path-effect="#path-effect3402"
         inkscape:original-d="m 472.63517,400.85598 c -7.9692,-2.7e-4 -15.93866,-2.7e-4 -23.90838,0" />
      <path
         style="opacity:1;vector-effect:none;fill:none;fill-opacity:1;fill-rule:nonzero;stroke:#00ffff;stroke-width:0.1;stroke-linecap:round;stroke-linejoin:round;stroke-miterlimit:4;stroke-dasharray:none;stroke-dashoffset:0;stroke-opacity:1"
         d="m 449.59934,420.64313 20.19902,-1.92595"
         id="path3386"
         inkscape:connector-curvature="0"
         inkscape:path-effect="#path-effect3399"
         inkscape:original-d="m 449.59934,420.64313 c 6.73327,-0.64225 13.46628,-1.28423 20.19902,-1.92595" />
      <path
         style="opacity:1;vector-effect:none;fill:none;fill-opacity:1;fill-rule:nonzero;stroke:#00ffff;stroke-width:0.1;stroke-linecap:round;stroke-linejoin:round;stroke-miterlimit:4;stroke-dasharray:none;stroke-dashoffset:0;stroke-opacity:1"
         d="m 446.57134,419.03589 -18.3039,-3.97435"
         id="path3388"
         inkscape:connector-curvature="0"
         inkscape:path-effect="#path-effect3396"
         inkscape:original-d="m 446.57134,419.03589 c -6.10103,-1.32506 -12.20234,-2.64982 -18.3039,-3.97435" />
      <path
         inkscape:connector-curvature="0"
         id="path3390"
         style="opacity:1;vector-effect:none;fill:none;fill-opacity:1;fill-rule:nonzero;stroke:#00ffff;stroke-width:0.1;stroke-linecap:round;stroke-linejoin:round;stroke-miterlimit:4;stroke-dasharray:none;stroke-dashoffset:0;stroke-opacity:1"
         d="m 487.66314,435.05131 c 0,0.85604 -0.69396,1.55 -1.55,1.55 -0.85604,0 -1.55,-0.69396 -1.55,-1.55 0,-0.85604 0.69396,-1.55 1.55,-1.55 0.85604,0 1.55,0.69396 1.55,1.55 z m -70.34534,0 c 0,0.85604 -0.69396,1.55 -1.55,1.55 -0.85604,0 -1.55,-0.69396 -1.55,-1.55 0,-0.85604 0.69396,-1.55 1.55,-1.55 0.85604,0 1.55,0.69396 1.55,1.55 z m 70.34534,-148.17423 c 0,0.85604 -0.69396,1.55 -1.55,1.55 -0.85604,0 -1.55,-0.69396 -1.55,-1.55 0,-0.85604 0.69396,-1.55 1.55,-1.55 0.85604,0 1.55,0.69396 1.55,1.55 z m -70.34534,0 c 0,0.85604 -0.69396,1.55 -1.55,1.55 -0.85604,0 -1.55,-0.69396 -1.55,-1.55 0,-0.85604 0.69396,-1.55 1.55,-1.55 0.85604,0 1.55,0.69396 1.55,1.55 z m -6.94763,-6.6493 h 81.1406 c 0.93409,0 1.68608,1.16976 1.68608,2.62278 v 156.22728 c 0,1.45302 -0.75199,2.62278 -1.68608,2.62278 h -81.1406 c -0.93408,0 -1.68607,-1.16976 -1.68607,-2.62278 V 282.85056 c 0,-1.45302 0.75199,-2.62278 1.68607,-2.62278 z"
         sodipodi:nodetypes="ssssssssssssssssssssssssssscs" />
    </g>
    <path
       sodipodi:nodetypes="sssscssssccsssscsssscsssscsssssssssssssssssssss"
       inkscape:connector-curvature="0"
       id="path1671"
       d="m 220.22293,66.101231 c -0.93409,0 -1.68622,1.16956 -1.68622,2.62259 V 104.9371 c 0,1.45302 0.75213,2.62259 1.68622,2.62259 h 6.79751 V 78.733531 c 0,-0.21823 0.29255,-0.39376 0.6563,-0.39376 h 1.68721 c 0.36376,0 0.6563,0.17553 0.6563,0.39376 V 107.55969 H 316.8408 V 78.733531 c 0,-0.21823 0.29254,-0.39376 0.65628,-0.39376 h 1.68723 c 0.36374,0 0.65629,0.17553 0.65629,0.39376 v 28.826159 h 7.9809 c 0.93409,0 1.68621,-1.16957 1.68621,-2.62259 V 68.723811 c 0,-1.45302 -0.75212,-2.62258 -1.68621,-2.62258 h -24.25326 v 4.886 c 0,2.32798 -1.75684,4.20181 -3.9393,4.20181 h -51.21343 c -2.18248,0 -3.9393,-1.87383 -3.9393,-4.20181 v -4.886 z m 18.62677,5.63583 c 0.85603,0 1.54977,0.69373 1.54977,1.54978 0,0.85603 -0.69374,1.55029 -1.54977,1.55029 -0.85603,0 -1.5503,-0.69426 -1.5503,-1.55029 0,-0.85605 0.69427,-1.54978 1.5503,-1.54978 z m 70.34503,0 c 0.85606,0 1.5503,0.69373 1.5503,1.54978 0,0.85603 -0.69424,1.55029 -1.5503,1.55029 -0.85603,0 -1.54977,-0.69426 -1.54977,-1.55029 0,-0.85605 0.69374,-1.54978 1.54977,-1.54978 z M 238.8497,102.00602 c 0.85603,0 1.54977,0.69425 1.54977,1.55029 0,0.85604 -0.69374,1.54979 -1.54977,1.54979 -0.85603,0 -1.5503,-0.69375 -1.5503,-1.54979 0,-0.85604 0.69427,-1.55028 1.5503,-1.55029 z m 70.34503,0 c 0.85606,0 1.5503,0.69425 1.5503,1.55029 0,0.85604 -0.69424,1.54979 -1.5503,1.54979 -0.85603,0 -1.54977,-0.69375 -1.54977,-1.54979 0,-0.85604 0.69374,-1.55028 1.54977,-1.55029 z"
       style="opacity:1;vector-effect:none;fill:none;fill-opacity:1;fill-rule:nonzero;stroke:#ff0000;stroke-width:0.1;stroke-linecap:round;stroke-linejoin:round;stroke-miterlimit:4;stroke-dasharray:none;stroke-dashoffset:0;stroke-opacity:1" />
    <path
       id="path2289"
       style="opacity:1;vector-effect:none;fill:none;fill-opacity:1;fill-rule:evenodd;stroke:#ff0000;stroke-width:0.10000001;stroke-linecap:round;stroke-linejoin:bevel;stroke-miterlimit:4;stroke-dasharray:none;stroke-dashoffset:0;stroke-opacity:1"
       d="m 291.92942,131.33497 h 7.34911 c 0.59579,0 1.07544,0.21644 1.07544,0.48529 v 16.02876 c 0,0.26885 -0.47965,0.48528 -1.07544,0.48528 h -7.34911 c -0.59584,0 -1.07544,-0.21643 -1.07544,-0.48528 v -16.02876 c 0,-0.26885 0.4796,-0.48529 1.07544,-0.48529 z m 3.67456,-19.9504 c -1.63298,0 -3.23565,0.17368 -4.79971,0.50488 v 11.28976 c 0,0.21825 -0.29306,0.39377 -0.65681,0.39377 h -1.68672 c -0.36375,0 -0.6568,-0.17552 -0.6568,-0.39377 v -10.44433 c -13.18885,4.65859 -22.92056,20.84846 -22.92056,40.10763 h 61.4412 c 0,-19.25919 -9.73169,-35.44908 -22.92057,-40.10763 v 10.44433 c 0,0.21825 -0.29254,0.39377 -0.65628,0.39377 h -1.68724 c -0.36375,0 -0.65629,-0.17552 -0.65629,-0.39377 v -11.28976 c -1.56406,-0.3312 -3.16725,-0.50488 -4.80022,-0.50488 z"
       inkscape:connector-curvature="0"
       sodipodi:nodetypes="sssssssssscssssccccsssscs" />
    <path
       d="m 360.74857,111.38457 c -1.63298,0 -3.23564,0.17368 -4.79971,0.50488 v 11.28976 c 0,0.21825 -0.29306,0.39377 -0.6568,0.39377 h -1.68672 c -0.36375,0 -0.65681,-0.17552 -0.65681,-0.39377 v -10.44433 c -13.18884,4.65859 -22.92057,20.84846 -22.92056,40.10763 h 61.44121 c 0,-19.25919 -9.73169,-35.44908 -22.92057,-40.10763 v 10.44433 c 0,0.21825 -0.29254,0.39377 -0.65629,0.39377 h -1.68724 c -0.36374,0 -0.65629,-0.17552 -0.65629,-0.39377 v -11.28976 c -1.56406,-0.3312 -3.16724,-0.50488 -4.80022,-0.50488 z"
       style="opacity:1;vector-effect:none;fill:none;fill-opacity:1;fill-rule:evenodd;stroke:#ff0000;stroke-width:0.1;stroke-linecap:round;stroke-linejoin:bevel;stroke-miterlimit:4;stroke-dasharray:none;stroke-dashoffset:0;stroke-opacity:1"
       id="path2313"
       inkscape:connector-curvature="0"
       sodipodi:nodetypes="scssssccccsssscs" />
    <path
       style="opacity:1;vector-effect:none;fill:none;fill-opacity:1;fill-rule:nonzero;stroke:#ff0000;stroke-width:0.1;stroke-linecap:round;stroke-linejoin:round;stroke-miterlimit:4;stroke-dasharray:none;stroke-dashoffset:0;stroke-opacity:1"
       d="m 333.83978,66.101221 c -0.93409,0 -1.68622,1.16956 -1.68622,2.6226 v 36.213269 c 0,1.45302 0.75213,2.6226 1.68622,2.6226 h 6.79751 V 78.733521 c 0,-0.21823 0.29255,-0.39376 0.6563,-0.39376 h 1.68721 c 0.36376,0 0.6563,0.17553 0.6563,0.39376 v 28.826169 h 86.82055 V 78.733521 c 0,-0.21823 0.29254,-0.39376 0.65628,-0.39376 h 1.68723 c 0.36374,0 0.65629,0.17553 0.65629,0.39376 v 28.826169 h 7.9809 c 0.93409,0 1.68621,-1.16958 1.68621,-2.6226 V 68.723801 c 0,-1.45302 -0.75212,-2.62258 -1.68621,-2.62258 h -24.25326 v 4.886 c 0,2.32798 -1.75684,4.20181 -3.9393,4.20181 h -51.21343 c -2.18248,0 -3.9393,-1.87383 -3.9393,-4.20181 v -4.886 z m 18.62677,5.63583 c 0.85603,0 1.54977,0.69374 1.54977,1.54978 0,0.85603 -0.69374,1.5503 -1.54977,1.5503 -0.85603,0 -1.5503,-0.69426 -1.5503,-1.5503 0,-0.85604 0.69427,-1.54978 1.5503,-1.54978 z m 70.34503,0 c 0.85606,0 1.5503,0.69374 1.5503,1.54978 0,0.85603 -0.69424,1.5503 -1.5503,1.5503 -0.85603,0 -1.54977,-0.69426 -1.54977,-1.5503 0,-0.85604 0.69374,-1.54978 1.54977,-1.54978 z m -70.34503,30.268959 c 0.85603,0 1.54977,0.69426 1.54977,1.5503 0,0.85604 -0.69374,1.54978 -1.54977,1.54978 -0.85603,0 -1.5503,-0.69375 -1.5503,-1.54978 0,-0.85604 0.69427,-1.55028 1.5503,-1.5503 z m 70.34503,0 c 0.85606,0 1.5503,0.69426 1.5503,1.5503 0,0.85604 -0.69424,1.54978 -1.5503,1.54978 -0.85603,0 -1.54977,-0.69375 -1.54977,-1.54978 0,-0.85604 0.69374,-1.55028 1.54977,-1.5503 z"
       id="path23732"
       inkscape:connector-curvature="0"
       sodipodi:nodetypes="sssscssssccsssscsssscsssscsssssssssssssssssssss" />
    <path
       id="path23770"
       style="opacity:1;vector-effect:none;fill:none;fill-opacity:1;fill-rule:nonzero;stroke:#00ff00;stroke-width:0.1;stroke-linecap:round;stroke-linejoin:round;stroke-miterlimit:4;stroke-dasharray:none;stroke-dashoffset:0;stroke-opacity:1"
       d="m -57.73962,214.08147 c 0,0.85604 -0.69396,1.55 -1.55,1.55 -0.85604,0 -1.55,-0.69396 -1.55,-1.55 0,-0.85604 0.69396,-1.55 1.55,-1.55 0.85604,0 1.55,0.69396 1.55,1.55 z m -70.34534,0 c 0,0.85604 -0.69396,1.55 -1.55,1.55 -0.85604,0 -1.55,-0.69396 -1.55,-1.55 0,-0.85604 0.69396,-1.55 1.55,-1.55 0.85604,0 1.55,0.69396 1.55,1.55 z M -57.73962,65.907237 c 0,0.85604 -0.69396,1.55 -1.55,1.55 -0.85604,0 -1.55,-0.69396 -1.55,-1.55 0,-0.85604 0.69396,-1.55 1.55,-1.55 0.85604,0 1.55,0.69396 1.55,1.55 z m -70.34534,0 c 0,0.85604 -0.69396,1.55 -1.55,1.55 -0.85604,0 -1.55,-0.69396 -1.55,-1.55 0,-0.85604 0.69396,-1.55 1.55,-1.55 0.85604,0 1.55,0.69396 1.55,1.55 z m -6.94763,-6.6493 h 81.1406 c 0.93409,0 1.68608,1.16976 1.68608,2.62278 V 218.108 c 0,1.45302 -0.75199,2.62278 -1.68608,2.62278 h -81.1406 c -0.93408,0 -1.68607,-1.16976 -1.68607,-2.62278 V 61.880717 c 0,-1.45302 0.75199,-2.62278 1.68607,-2.62278 z"
       inkscape:connector-curvature="0" />
    <text
       xml:space="preserve"
       style="font-style:normal;font-variant:normal;font-weight:normal;font-stretch:normal;font-size:8.46666622px;line-height:1.25;font-family:Arial;-inkscape-font-specification:Arial;letter-spacing:0px;word-spacing:0px;fill:#ff0000;fill-opacity:1;stroke:#ff0000;stroke-width:0.26458332;stroke-opacity:1"
       x="215.12541"
       y="53.923424"
       id="text23808"><tspan
         sodipodi:role="line"
         id="tspan23806"
         x="215.12541"
         y="53.923424"
         style="fill:#ff0000;fill-opacity:1;stroke:#ff0000;stroke-width:0.26458332;stroke-opacity:1">Frame (optional). Cut from 1/8&quot; (3.2mm) wood or acrylic sheet</tspan></text>
    <path
       inkscape:connector-curvature="0"
       d="m -144.36903,214.08147 c 0,0.85604 -0.69396,1.55 -1.55,1.55 -0.85604,0 -1.55,-0.69396 -1.55,-1.55 0,-0.85604 0.69396,-1.55 1.55,-1.55 0.85604,0 1.55,0.69396 1.55,1.55 z m -70.34535,0 c 0,0.85604 -0.69396,1.55 -1.55,1.55 -0.85604,0 -1.55,-0.69396 -1.55,-1.55 0,-0.85604 0.69396,-1.55 1.55,-1.55 0.85604,0 1.55,0.69396 1.55,1.55 z m 70.34535,-148.174233 c 0,0.85604 -0.69396,1.55 -1.55,1.55 -0.85604,0 -1.55,-0.69396 -1.55,-1.55 0,-0.85604 0.69396,-1.55 1.55,-1.55 0.85604,0 1.55,0.69396 1.55,1.55 z m -70.34535,0 c 0,0.85604 -0.69396,1.55 -1.55,1.55 -0.85604,0 -1.55,-0.69396 -1.55,-1.55 0,-0.85604 0.69396,-1.55 1.55,-1.55 0.85604,0 1.55,0.69396 1.55,1.55 z m -6.94763,-6.6493 h 81.14061 c 0.93409,0 1.68608,1.16976 1.68608,2.62278 V 218.108 c 0,1.45302 -0.75199,2.62278 -1.68608,2.62278 h -81.14061 c -0.93408,0 -1.68607,-1.16976 -1.68607,-2.62278 V 61.880717 c 0,-1.45302 0.75199,-2.62278 1.68607,-2.62278 z"
       style="opacity:1;vector-effect:none;fill:none;fill-opacity:1;fill-rule:nonzero;stroke:#00ff00;stroke-width:0.1;stroke-linecap:round;stroke-linejoin:round;stroke-miterlimit:4;stroke-dasharray:none;stroke-dashoffset:0;stroke-opacity:1"
       id="path23810" />
    <text
       xml:space="preserve"
       style="font-style:normal;font-variant:normal;font-weight:normal;font-stretch:normal;font-size:8.46666622px;line-height:1.25;font-family:Arial;-inkscape-font-specification:Arial;letter-spacing:0px;word-spacing:0px;fill:#00ff00;fill-opacity:1;stroke:#00ff00;stroke-width:0.26458332;stroke-opacity:1"
       x="-247.05467"
       y="51.462406"
       id="text23814"><tspan
         sodipodi:role="line"
         id="tspan23812"
         x="-247.05467"
         y="51.462406"
         style="fill:#00ff00;fill-opacity:1;stroke:#00ff00;stroke-width:0.26458332;stroke-opacity:1">Outer retaining layers. Cut from 1/16&quot; (1.6mm) clear acrylic</tspan></text>
    <text
       xml:space="preserve"
       style="font-style:normal;font-variant:normal;font-weight:normal;font-stretch:normal;font-size:8.46666622px;line-height:1.25;font-family:Arial;-inkscape-font-specification:Arial;letter-spacing:0px;word-spacing:0px;fill:#00ffff;fill-opacity:1;stroke:#00ffff;stroke-width:0.26458332;stroke-opacity:1"
       x="16.766972"
       y="51.46241"
       id="text23818"><tspan
         sodipodi:role="line"
         id="tspan23816"
         x="16.766972"
         y="51.46241"
         style="fill:#00ffff;fill-opacity:1;stroke:#00ffff;stroke-width:0.26458332;stroke-opacity:1">Middle layer. Cut from 1/4&quot; (6.4mm) clear acrylic. </tspan></text>
  </g>
</svg>
